<?xml version="1.0" encoding="UTF-8"?>
<svg id="Layer_1" xmlns="http://www.w3.org/2000/svg" xmlns:xlink="http://www.w3.org/1999/xlink" version="1.1" viewBox="0 0 128 128">
  <!-- Generator: Adobe Illustrator 29.8.9, SVG Export Plug-In . SVG Version: 2.1.1 Build 1)  -->
  <defs>
    <style>
      .st0 {
        fill: #e0e0e0;
      }

      .st1 {
        fill: url(#linear-gradient);
      }

      .st2 {
        opacity: .7;
        stroke: #a494b8;
        stroke-width: 3px;
      }

      .st2, .st3, .st4 {
        stroke-linecap: round;
      }

      .st2, .st3, .st4, .st5 {
        fill: none;
      }

      .st2, .st6, .st5 {
        isolation: isolate;
      }

      .st3 {
        stroke: #a98c35;
        stroke-width: 12px;
      }

      .st3, .st4 {
        stroke-linejoin: round;
      }

      .st6 {
        fill: #f2c94c;
        font-family: Arial-BoldMT, Arial;
        font-size: 31.3px;
        font-weight: 700;
        letter-spacing: .2em;
        opacity: .9;
      }

      .st7 {
        fill: #fff;
      }

      .st4 {
        stroke: #f2c94c;
        stroke-width: 8px;
      }

      .st5 {
        opacity: .5;
        stroke: #36254b;
        stroke-width: 2px;
      }
    </style>
    <linearGradient id="linear-gradient" x1="-612.4" y1="446.3" x2="-612.4" y2="445.3" gradientTransform="translate(73546 53565) scale(120 -120)" gradientUnits="userSpaceOnUse">
      <stop offset="0" stop-color="#715990"/>
      <stop offset="1" stop-color="#463062"/>
    </linearGradient>
  </defs>
  <g id="tile">
    <rect class="st1" x="4" y="4" width="120" height="120" rx="28" ry="28"/>
    <rect class="st5" x="4" y="4" width="120" height="120" rx="28" ry="28"/>
    <path id="rim-light" class="st2" d="M20,10h88c6.7.6,12.3,5.4,14,12"/>
  </g>
  <g id="glyph">
    <g id="person">
      <circle class="st7" cx="39.5" cy="30.6" r="13"/>
      <path class="st7" d="M19.5,70.6c0-20,40-20,40,0H19.5Z"/>
      <path class="st0" d="M19.5,70.6c0-13,15-18,25-17-12,4-19,10-21,17h-4Z"/>
    </g>
    <g id="arrow">
      <path class="st3" d="M80.5,64.6V24.6M64.5,38.6l16-16,16,16"/>
      <path class="st4" d="M80.5,62.6V24.6M65.5,37.6l15-15,15,15"/>
    </g>
    <text class="st6" transform="translate(20 98.6)"><tspan x="0" y="0">+10K</tspan></text>
  </g>
</svg>