<svg xmlns="http://www.w3.org/2000/svg" viewBox="0 0 128 128">
<defs>
  <linearGradient id="bg-Channel1" x1="0" y1="0" x2="0" y2="1">
    <stop offset="0" stop-color="#49759A"/><stop offset="1" stop-color="#224A6B"/>
  </linearGradient>
</defs>
<g id="tile">
  <rect x="4" y="4" width="120" height="120" rx="28" fill="url(#bg-Channel1)"/>
  <rect x="4" y="4" width="120" height="120" rx="28" fill="none" stroke="#1A3952" stroke-width="2" opacity="0.5"/>
  <path id="rim-light" d="M20 10 H108 A16 16 0 0 1 122 22" fill="none" stroke="#8AA7BE" stroke-width="3" stroke-linecap="round" opacity="0.7"/>
</g>
<g id="glyph">
<g id="tv"><g stroke="#95AFC4" stroke-width="6" stroke-linecap="round"><line x1="50" y1="36" x2="38" y2="18"/><line x1="78" y1="36" x2="90" y2="18"/></g><circle cx="38" cy="18" r="4.5" fill="#95AFC4"/><circle cx="90" cy="18" r="4.5" fill="#95AFC4"/><rect x="29" y="37" width="70" height="53" rx="10" fill="#000" opacity="0.22" transform="translate(1.5,2.5)"/><rect x="28" y="36" width="72" height="54" rx="10" fill="#1F4463"/><rect x="34" y="42" width="60" height="42" rx="6" fill="#FFFFFF"/><path d="M34 42 h60 v14 c-20 -7 -40 -7 -60 0 Z" fill="#7FB3D5" opacity="0.35"/><text x="64" y="65" font-family="Arial" font-size="30" font-weight="bold" fill="#1C3D59" text-anchor="middle" dominant-baseline="central">1</text><rect x="34" y="96" width="60" height="9" rx="4.5" fill="#F2C94C"/><rect x="34" y="96" width="60" height="4" rx="2" fill="#F7DE93"/></g>
</g>
</svg>