<?xml version="1.0" encoding="UTF-8"?>
<svg id="Layer_1" xmlns="http://www.w3.org/2000/svg" xmlns:xlink="http://www.w3.org/1999/xlink" version="1.1" viewBox="0 0 128 128">
  <!-- Generator: Adobe Illustrator 29.8.9, SVG Export Plug-In . SVG Version: 2.1.1 Build 1)  -->
  <defs>
    <style>
      .st0 {
        fill: #f2c94c;
      }

      .st1 {
        fill: #f6db8a;
      }

      .st2 {
        fill: url(#linear-gradient);
      }

      .st3 {
        opacity: .7;
        stroke: #c08884;
        stroke-linecap: round;
        stroke-width: 3px;
      }

      .st3, .st4 {
        fill: none;
      }

      .st3, .st4, .st5, .st6 {
        isolation: isolate;
      }

      .st4 {
        opacity: .5;
        stroke: #551713;
        stroke-width: 2px;
      }

      .st7 {
        opacity: .8;
      }

      .st8 {
        fill: #bb7d79;
      }

      .st5 {
        fill: #fff;
      }

      .st5, .st6 {
        font-family: Georgia-Bold, Georgia;
        font-size: 54px;
        font-weight: 700;
      }

      .st6 {
        opacity: .6;
      }
    </style>
    <linearGradient id="linear-gradient" x1="-612.4" y1="446.3" x2="-612.4" y2="445.3" gradientTransform="translate(73546 53565) scale(120 -120)" gradientUnits="userSpaceOnUse">
      <stop offset="0" stop-color="#9d4540"/>
      <stop offset="1" stop-color="#6e1e19"/>
    </linearGradient>
  </defs>
  <g id="tile">
    <rect class="st2" x="4" y="4" width="120" height="120" rx="28" ry="28"/>
    <rect class="st4" x="4" y="4" width="120" height="120" rx="28" ry="28"/>
    <path id="rim-light" class="st3" d="M20,10h88c6.7.6,12.3,5.4,14,12"/>
  </g>
  <g id="glyph">
    <text class="st6" transform="translate(26.7 74.7)"><tspan x="0" y="0">CT</tspan></text>
    <text class="st5" transform="translate(28.1 77.3)"><tspan x="0" y="0">CT</tspan></text>
    <path class="st0" d="M37.5,90h53c1.9,0,3.5,1.6,3.5,3.5h0c0,1.9-1.6,3.5-3.5,3.5h-53c-1.9,0-3.5-1.6-3.5-3.5h0c0-1.9,1.6-3.5,3.5-3.5Z"/>
    <path class="st1" d="M35.5,90h57c.8,0,1.5.7,1.5,1.5h0c0,.8-.7,1.5-1.5,1.5h-57c-.8,0-1.5-.7-1.5-1.5h0c0-.8.7-1.5,1.5-1.5Z"/>
    <g class="st7">
      <path class="st8" d="M40,26h48c1.1,0,2,.9,2,2h0c0,1.1-.9,2-2,2h-48c-1.1,0-2-.9-2-2h0c0-1.1.9-2,2-2Z"/>
      <path class="st8" d="M47.5,18h33c.8,0,1.5.7,1.5,1.5h0c0,.8-.7,1.5-1.5,1.5h-33c-.8,0-1.5-.7-1.5-1.5h0c0-.8.7-1.5,1.5-1.5Z"/>
    </g>
  </g>
</svg>