<svg xmlns="http://www.w3.org/2000/svg" viewBox="0 0 128 128">
<defs>
  <linearGradient id="bg-firealarm" x1="0" y1="0" x2="0" y2="1">
    <stop offset="0" stop-color="#A2443D"/><stop offset="1" stop-color="#721D17"/>
  </linearGradient>
</defs>
<g id="tile">
  <rect x="4" y="4" width="120" height="120" rx="28" fill="url(#bg-firealarm)"/>
  <rect x="4" y="4" width="120" height="120" rx="28" fill="none" stroke="#581612" stroke-width="2" opacity="0.5"/>
  <path id="rim-light" d="M20 10 H108 A16 16 0 0 1 122 22" fill="none" stroke="#C38783" stroke-width="3" stroke-linecap="round" opacity="0.7"/>
</g>
<g id="glyph">
<g id="bell"><path d="M64 26 C46 26 41 44 41 60 V76 H87 V60 C87 44 82 26 64 26 Z" fill="#000" opacity="0.25" transform="translate(1.5,2.5)"/><path d="M64 26 C46 26 41 44 41 60 V76 H87 V60 C87 44 82 26 64 26 Z" fill="#F2C94C"/><path d="M64 26 C50 26 45 40 44 54 C50 44 58 40 64 40 C58 34 60 28 64 26 Z" fill="#F7E19C" opacity="0.8"/><rect x="59" y="18" width="10" height="10" rx="5" fill="#F2C94C"/><rect x="34" y="76" width="60" height="9" rx="4.5" fill="#FFFFFF"/><circle cx="64" cy="96" r="7.5" fill="#FFFFFF"/><circle cx="62" cy="94" r="2.5" fill="#F5D981"/><g stroke="#F2C94C" stroke-width="4" stroke-linecap="round" opacity="0.8"><path d="M30 34 q-8 8 -6 18"/><path d="M98 34 q8 8 6 18"/></g></g>
</g>
</svg>