<?xml version="1.0" encoding="UTF-8"?>
<svg id="Layer_1" xmlns="http://www.w3.org/2000/svg" xmlns:xlink="http://www.w3.org/1999/xlink" version="1.1" viewBox="0 0 128 128">
  <!-- Generator: Adobe Illustrator 29.8.9, SVG Export Plug-In . SVG Version: 2.1.1 Build 1)  -->
  <defs>
    <style>
      .st0 {
        fill: #f2c94c;
      }

      .st1 {
        fill: #c86d67;
        opacity: .8;
      }

      .st1, .st2, .st3, .st4, .st5 {
        isolation: isolate;
      }

      .st2 {
        opacity: .2;
      }

      .st3 {
        opacity: .2;
      }

      .st6 {
        stroke: #5b6377;
        stroke-linecap: round;
        stroke-width: 7px;
      }

      .st4 {
        fill: #c6a43e;
        opacity: .7;
      }

      .st7 {
        fill: url(#linear-gradient);
      }

      .st8 {
        fill: #f8e4a5;
      }

      .st9 {
        stroke: #b3352c;
      }

      .st9, .st10, .st5 {
        fill: none;
      }

      .st9, .st5 {
        stroke-width: 2px;
      }

      .st11 {
        fill: #5b6377;
      }

      .st12 {
        fill: #f4f3ee;
      }

      .st10 {
        stroke: #fff;
        stroke-width: 3px;
      }

      .st13 {
        fill: #b3352c;
      }

      .st5 {
        opacity: .5;
        stroke: #42110d;
      }
    </style>
    <linearGradient id="linear-gradient" x1="-612.4" y1="446.3" x2="-612.4" y2="445.3" gradientTransform="translate(73546 53565) scale(120 -120)" gradientUnits="userSpaceOnUse">
      <stop offset="0" stop-color="#823c36"/>
      <stop offset="1" stop-color="#551611"/>
    </linearGradient>
  </defs>
  <g id="tile">
    <rect class="st7" x="4" y="4" width="120" height="120" rx="28" ry="28"/>
    <rect class="st5" x="4" y="4" width="120" height="120" rx="28" ry="28"/>
  </g>
  <g id="glyph">
    <ellipse id="ground-shadow" class="st3" cx="74.8" cy="112.8" rx="26.4" ry="5.4"/>
    <g id="extinguisher">
      <rect class="st2" x="58.9" y="44.3" width="36.1" height="63.1" rx="11" ry="11"/>
      <rect class="st13" x="55.9" y="39.4" width="36.1" height="65.3" rx="11" ry="11"/>
      <path class="st1" d="M62.5,39.4h0c3.7,0,6.6,2.7,6.6,6v53.3c0,3.3-3,6-6.6,6h0c-3.7,0-6.6-2.7-6.6-6v-53.3c0-3.3,3-6,6.6-6Z"/>
      <rect class="st12" x="63.1" y="59" width="21.6" height="23.9" rx="3" ry="3"/>
      <g id="flame">
        <path class="st0" d="M74,60.5c4.6,4.7,6.9,7.3,6.9,12s-3.2,7.8-6.9,7.8-6.9-3.1-6.9-7.8,1.4-5,3.5-7.3c-.3,3.1.9,4.4,2.3,4.2-2-3.4-1.4-6,1.2-8.9Z"/>
        <path class="st4" d="M74,60.5c4.6,4.7,6.9,7.3,6.9,12s-2,6.3-4.6,7.3c1.7-2.6,1.7-6.3-.6-9.4,1.2-3.1,0-6.8-1.7-9.9Z"/>
        <path class="st13" d="M74,72c2.3,2.1,3.2,3.4,3.2,5s-1.4,3.4-3.2,3.4-3.2-1.3-3.2-3.4.9-2.9,3.2-5Z"/>
        <path class="st8" d="M74,74.6c1.2,1,1.4,1.8,1.4,2.6,0,1.3-.9,2.1-1.4,2.1-.9,0-1.4-.8-1.4-2.1s.3-1.6,1.4-2.6Z"/>
      </g>
      <rect class="st11" x="64.3" y="26.3" width="19.2" height="14.1" rx="4" ry="4"/>
      <ellipse class="st10" cx="53.5" cy="32.8" rx="7.2" ry="6.5"/>
      <line class="st9" x1="53.5" y1="29.6" x2="53.5" y2="32.8"/>
      <path class="st6" d="M64.3,30.7l-25.2-8.7"/>
      <path class="st0" d="M45.8,23l-16.8-9.8c-4,.6-6.7,4-6,7.6s4.4,6,8.4,5.4l14.4-3.3Z"/>
    </g>
  </g>
</svg>