<svg xmlns="http://www.w3.org/2000/svg" viewBox="0 0 128 128">
<defs>
  <linearGradient id="bg-dovetransport" x1="0" y1="0" x2="0" y2="1">
    <stop offset="0" stop-color="#49759A"/><stop offset="1" stop-color="#224A6B"/>
  </linearGradient>
</defs>
<g id="tile">
  <rect x="4" y="4" width="120" height="120" rx="28" fill="url(#bg-dovetransport)"/>
  <rect x="4" y="4" width="120" height="120" rx="28" fill="none" stroke="#1A3952" stroke-width="2" opacity="0.5"/>
  <path id="rim-light" d="M20 10 H108 A16 16 0 0 1 122 22" fill="none" stroke="#8AA7BE" stroke-width="3" stroke-linecap="round" opacity="0.7"/>
</g>
<g id="glyph">
<ellipse id="ground-shadow" cx="64" cy="104" rx="38" ry="6" fill="#000000" opacity="0.16"/><g id="bus"><rect x="28" y="28" width="72" height="62" rx="12" fill="#FFFFFF"/><rect x="28" y="28" width="72" height="14" rx="7" fill="#EAEAEA"/><rect x="35" y="36" width="26" height="22" rx="4" fill="#7FB3D5"/><rect x="67" y="36" width="26" height="22" rx="4" fill="#7FB3D5"/><path d="M35 36 h26 v8 c-9 -4 -17 -4 -26 0 Z" fill="#B2D1E5" opacity="0.7"/><path d="M67 36 h26 v8 c-9 -4 -17 -4 -26 0 Z" fill="#B2D1E5" opacity="0.7"/><rect x="36" y="66" width="14" height="11" rx="3" fill="#F2C94C"/><rect x="78" y="66" width="14" height="11" rx="3" fill="#F2C94C"/><rect x="56" y="64" width="16" height="26" rx="3" fill="#255075"/><circle cx="46" cy="94" r="10" fill="#20293A"/><circle cx="46" cy="94" r="4.5" fill="#5B6377"/><circle cx="82" cy="94" r="10" fill="#20293A"/><circle cx="82" cy="94" r="4.5" fill="#5B6377"/><path d="M52 20 c4 -6 8 -8 14 -6 c-2 4 -8 7 -14 6 Z" fill="#FFFFFF" opacity="0.9"/></g>
</g>
</svg>