<?xml version="1.0" encoding="UTF-8"?>
<svg id="Layer_1" xmlns="http://www.w3.org/2000/svg" xmlns:xlink="http://www.w3.org/1999/xlink" version="1.1" viewBox="0 0 128 128">
  <!-- Generator: Adobe Illustrator 29.8.9, SVG Export Plug-In . SVG Version: 2.1.1 Build 1)  -->
  <defs>
    <style>
      .st0 {
        stroke-linecap: round;
        stroke-width: 5px;
      }

      .st0, .st1, .st2 {
        stroke: #fff;
      }

      .st0, .st1, .st2, .st3, .st4 {
        fill: none;
      }

      .st5, .st6 {
        fill: #f2c94c;
      }

      .st7 {
        fill: url(#linear-gradient);
      }

      .st1 {
        stroke-width: 4px;
      }

      .st2 {
        stroke-width: 2.5px;
      }

      .st8 {
        fill: #fff;
      }

      .st9 {
        opacity: .9;
      }

      .st10 {
        fill: #c1a03c;
        opacity: .6;
      }

      .st10, .st3, .st6 {
        isolation: isolate;
      }

      .st3 {
        opacity: .5;
        stroke: #062c28;
        stroke-width: 2px;
      }

      .st4 {
        stroke: #ccc;
        stroke-width: 7px;
      }

      .st6 {
        font-family: Arial-BoldMT, Arial;
        font-size: 27.3px;
        font-weight: 700;
        letter-spacing: .2em;
      }
    </style>
    <linearGradient id="linear-gradient" x1="-612.4" y1="446.3" x2="-612.4" y2="445.3" gradientTransform="translate(73546 53565) scale(120 -120)" gradientUnits="userSpaceOnUse">
      <stop offset="0" stop-color="#2d635e"/>
      <stop offset="1" stop-color="#083935"/>
    </linearGradient>
  </defs>
  <g id="tile">
    <rect class="st7" x="4" y="4" width="120" height="120" rx="28" ry="28"/>
    <rect class="st3" x="4" y="4" width="120" height="120" rx="28" ry="28"/>
  </g>
  <g id="glyph">
    <g id="scales">
      <line class="st4" x1="64" y1="16.1" x2="64" y2="82.1"/>
      <line class="st1" x1="64" y1="16.1" x2="64" y2="82.1"/>
      <circle class="st5" cx="64" cy="13.1" r="5"/>
      <line class="st0" x1="32" y1="28.1" x2="96" y2="28.1"/>
      <g class="st9">
        <line class="st2" x1="32" y1="28.1" x2="24" y2="50.1"/>
        <line class="st2" x1="32" y1="28.1" x2="40" y2="50.1"/>
        <line class="st2" x1="96" y1="28.1" x2="88" y2="50.1"/>
        <line class="st2" x1="96" y1="28.1" x2="104" y2="50.1"/>
      </g>
      <path class="st5" d="M20,50.1h24c0,5-5.4,9-12,9s-12-4-12-9Z"/>
      <path class="st10" d="M20,50.1h24c-.7,4.6-5.9,8-12,8l-12-8Z"/>
      <path class="st5" d="M84,50.1h24c0,5-5.4,9-12,9s-12-4-12-9Z"/>
      <path class="st10" d="M84,50.1h24c-.7,4.6-5.9,8-12,8l-12-8Z"/>
      <path class="st8" d="M46,82.1h36c2.2,0,4,1.8,4,4h0c0,2.2-1.8,4-4,4h-36c-2.2,0-4-1.8-4-4h0c0-2.2,1.8-4,4-4Z"/>
      <text class="st6" transform="translate(32 116.7) scale(1 1)"><tspan x="0" y="0">FTC</tspan></text>
    </g>
  </g>
</svg>