<?xml version="1.0" encoding="UTF-8"?>
<svg id="Layer_1" xmlns="http://www.w3.org/2000/svg" xmlns:xlink="http://www.w3.org/1999/xlink" version="1.1" viewBox="0 0 128 128">
  <!-- Generator: Adobe Illustrator 29.8.9, SVG Export Plug-In . SVG Version: 2.1.1 Build 1)  -->
  <defs>
    <style>
      .st0 {
        fill: #f2c94c;
      }

      .st1 {
        fill: #c86d67;
        opacity: .6;
      }

      .st1, .st2, .st3, .st4, .st5, .st6 {
        isolation: isolate;
      }

      .st2 {
        opacity: .2;
      }

      .st3 {
        fill: #c6a43e;
      }

      .st3, .st6 {
        opacity: .7;
      }

      .st7 {
        fill: url(#linear-gradient);
      }

      .st8 {
        fill: #f8e4a5;
      }

      .st4 {
        opacity: .5;
        stroke: #380f0c;
        stroke-width: 2px;
      }

      .st4, .st6, .st9 {
        fill: none;
      }

      .st10 {
        fill: #b3352c;
      }

      .st5 {
        fill: #fff;
        font-family: Arial-BoldMT, Arial;
        font-size: 10px;
        font-weight: 700;
        letter-spacing: .1em;
      }

      .st6 {
        stroke: #a6817d;
        stroke-linecap: round;
        stroke-width: 3px;
      }

      .st9 {
        stroke: #fff;
        stroke-linejoin: round;
        stroke-width: 5px;
      }
    </style>
    <linearGradient id="linear-gradient" x1="-612.4" y1="446.3" x2="-612.4" y2="445.3" gradientTransform="translate(73546 53565) scale(120 -120)" gradientUnits="userSpaceOnUse">
      <stop offset="0" stop-color="#743a34"/>
      <stop offset="1" stop-color="#49140f"/>
    </linearGradient>
  </defs>
  <g id="tile">
    <rect class="st7" x="4" y="4" width="120" height="120" rx="28" ry="28"/>
    <rect class="st4" x="4" y="4" width="120" height="120" rx="28" ry="28"/>
    <path id="rim-light" class="st6" d="M20,10h88c6.7.6,12.3,5.4,14,12"/>
  </g>
  <g id="glyph">
    <g id="shield">
      <path class="st2" d="M65.5,19l38,15v35c0,27-17,42-38,50-21-8-38-23-38-50v-35l38-15Z"/>
      <path class="st10" d="M64,16l38,15v35c0,27-17,42-38,50-21-8-38-23-38-50V31l38-15Z"/>
      <path class="st9" d="M64,16l38,15v35c0,27-17,42-38,50-21-8-38-23-38-50V31l38-15Z"/>
      <path class="st1" d="M64,22l32,12.5v17.5c-14-6-46-6-64,0v-17.5l32-12.5Z"/>
      <g id="flame">
        <path class="st0" d="M64,48.4c11.8,13.4,17.8,20.9,17.8,34.4s-8.1,22.4-17.8,22.4-17.8-9-17.8-22.4,3.7-14.2,8.9-20.9c-.7,9,2.2,12.7,5.9,11.9-5.2-9.7-3.7-17.2,3-25.4Z"/>
        <path class="st3" d="M64,48.4c11.8,13.4,17.8,20.9,17.8,34.4s-5.2,17.9-11.8,20.9c4.4-7.5,4.4-17.9-1.5-26.9,3-9,0-19.4-4.4-28.4Z"/>
        <path class="st10" d="M64,81.3c5.9,6,8.1,9.7,8.1,14.2s-3.7,9.7-8.1,9.7-8.1-3.7-8.1-9.7,2.2-8.2,8.1-14.2Z"/>
        <path class="st8" d="M64,88.8c3,3,3.7,5.2,3.7,7.5,0,3.7-2.2,6-3.7,6-2.2,0-3.7-2.2-3.7-6s.7-4.5,3.7-7.5Z"/>
      </g>
      <text class="st5" transform="translate(33.6 43.9)"><tspan x="0" y="0">FIRE DEPT</tspan></text>
    </g>
  </g>
</svg>