<svg xmlns="http://www.w3.org/2000/svg" viewBox="0 0 128 128">
<defs>
  <linearGradient id="bg-forestcom" x1="0" y1="0" x2="0" y2="1">
    <stop offset="0" stop-color="#43614B"/><stop offset="1" stop-color="#1C3823"/>
  </linearGradient>
</defs>
<g id="tile">
  <rect x="4" y="4" width="120" height="120" rx="28" fill="url(#bg-forestcom)"/>
  <rect x="4" y="4" width="120" height="120" rx="28" fill="none" stroke="#162B1B" stroke-width="2" opacity="0.5"/>
  <path id="rim-light" d="M20 10 H108 A16 16 0 0 1 122 22" fill="none" stroke="#879A8C" stroke-width="3" stroke-linecap="round" opacity="0.7"/>
</g>
<g id="glyph">
<ellipse id="ground-shadow" cx="64" cy="106" rx="42" ry="6" fill="#000000" opacity="0.16"/><g id="pine" transform="translate(46,60) scale(0.95)"><rect x="-6" y="30" width="12" height="20" rx="3" fill="#7A5230"/><rect x="-6" y="30" width="5" height="20" fill="#A1856E"/><polygon points="0,-48 20,-16 -20,-16" fill="#3E7C4F"/><polygon points="0,-30 26,4 -26,4" fill="#30603D"/><polygon points="0,-12 32,32 -32,32" fill="#3E7C4F"/><polygon points="0,-48 20,-16 0,-16" fill="#689875" opacity="0.45"/><polygon points="0,-30 26,4 0,4" fill="#63876D" opacity="0.4"/><polygon points="0,-12 32,32 0,32" fill="#689875" opacity="0.35"/></g><g id="pine" transform="translate(84,68) scale(0.72)"><rect x="-6" y="30" width="12" height="20" rx="3" fill="#7A5230"/><rect x="-6" y="30" width="5" height="20" fill="#A1856E"/><polygon points="0,-48 20,-16 -20,-16" fill="#5B9A6B"/><polygon points="0,-30 26,4 -26,4" fill="#467853"/><polygon points="0,-12 32,32 -32,32" fill="#5B9A6B"/><polygon points="0,-48 20,-16 0,-16" fill="#7FB08B" opacity="0.45"/><polygon points="0,-30 26,4 0,4" fill="#74997E" opacity="0.4"/><polygon points="0,-12 32,32 0,32" fill="#7FB08B" opacity="0.35"/></g><circle cx="100" cy="30" r="9" fill="#F2C94C" opacity="0.9"/>
</g>
</svg>