<?xml version="1.0" encoding="UTF-8"?>
<svg id="Layer_1" xmlns="http://www.w3.org/2000/svg" xmlns:xlink="http://www.w3.org/1999/xlink" version="1.1" viewBox="0 0 128 128">
  <!-- Generator: Adobe Illustrator 29.8.9, SVG Export Plug-In . SVG Version: 2.1.1 Build 1)  -->
  <defs>
    <style>
      .st0 {
        fill: #e0e0e0;
      }

      .st1 {
        fill: #c46a6a;
      }

      .st2 {
        fill: url(#linear-gradient);
      }

      .st3 {
        stroke: #20293a;
      }

      .st3, .st4 {
        stroke-width: 2.5px;
      }

      .st3, .st4, .st5 {
        stroke-linecap: round;
      }

      .st3, .st4, .st5, .st6 {
        fill: none;
      }

      .st7 {
        font-family: Arial-BoldMT, Arial;
        font-size: 13.2px;
        font-weight: 700;
        letter-spacing: .2em;
      }

      .st7, .st8 {
        fill: #fff;
      }

      .st7, .st9, .st5, .st6 {
        isolation: isolate;
      }

      .st10 {
        fill: #d98a8a;
      }

      .st11 {
        fill: #20293a;
      }

      .st9 {
        fill: #e5e5e5;
      }

      .st9, .st5 {
        opacity: .7;
      }

      .st12 {
        fill: #c9716b;
      }

      .st13 {
        fill: #b3352c;
      }

      .st4 {
        stroke: #5b6377;
      }

      .st5 {
        stroke: #7b7d80;
        stroke-width: 3px;
      }

      .st6 {
        opacity: .5;
        stroke: #090c0f;
        stroke-width: 2px;
      }
    </style>
    <linearGradient id="linear-gradient" x1="-612.4" y1="446.3" x2="-612.4" y2="445.3" gradientTransform="translate(73546 53565) scale(120 -120)" gradientUnits="userSpaceOnUse">
      <stop offset="0" stop-color="#303439"/>
      <stop offset="1" stop-color="#0b0f13"/>
    </linearGradient>
  </defs>
  <g id="tile">
    <rect class="st2" x="4" y="4" width="120" height="120" rx="28" ry="28"/>
    <rect class="st6" x="4" y="4" width="120" height="120" rx="28" ry="28"/>
    <path id="rim-light" class="st5" d="M20,10h88c6.7.6,12.3,5.4,14,12"/>
  </g>
  <g id="glyph">
    <g id="cat">
      <polygon class="st0" points="42.8 46.7 41.9 21.5 60.2 36 42.8 46.7"/>
      <polygon class="st0" points="86.2 46.3 85.3 21 68.2 36.9 86.2 46.3"/>
      <polygon class="st10" points="45 44.4 44.9 26.8 56.7 38.3 45 44.4"/>
      <polygon class="st10" points="83.3 41.8 83.2 26.9 71.7 35.6 83.3 41.8"/>
      <circle class="st8" cx="64" cy="63" r="29"/>
      <path class="st9" d="M35,63c0,16,13,29,29,29s29-13,29-29c-8,10-50,10-58,0Z"/>
      <circle class="st11" cx="53" cy="57" r="5"/>
      <circle class="st11" cx="75" cy="57" r="5"/>
      <circle class="st8" cx="54.5" cy="55.5" r="1.6"/>
      <circle class="st8" cx="76.5" cy="55.5" r="1.6"/>
      <polygon class="st1" points="64 72 69 66 59 66 64 72"/>
      <path class="st3" d="M64,72c-3.3,4-7,5.3-11,4M64,72c3.3,4,7,5.3,11,4"/>
      <g>
        <line class="st4" x1="43.8" y1="66.5" x2="33.4" y2="62.5"/>
        <line class="st4" x1="43.8" y1="72.5" x2="33.4" y2="75.5"/>
        <line class="st4" x1="82.6" y1="66.5" x2="93" y2="62.5"/>
        <line class="st4" x1="82.6" y1="72.5" x2="93" y2="75.5"/>
      </g>
    </g>
    <g id="banner">
      <path class="st13" d="M30.4,96h67.3c4,0,7.2,3.9,7.2,8.8h0c0,4.9-3.2,8.8-7.2,8.8H30.4c-4,0-7.2-3.9-7.2-8.8h0c0-4.9,3.2-8.8,7.2-8.8Z"/>
      <path class="st12" d="M26.1,96h75.7c1.7,0,3,1.6,3,3.7h0c0,2-1.3,3.7-3,3.7H26.1c-1.7,0-3-1.6-3-3.7h0c0-2,1.3-3.7,3-3.7Z"/>
      <text class="st7" transform="translate(32.7 109.2) scale(.8 1)"><tspan x="0" y="0">PATRIOT</tspan></text>
    </g>
  </g>
</svg>