<?xml version="1.0" encoding="UTF-8"?>
<svg id="Layer_1" xmlns="http://www.w3.org/2000/svg" xmlns:xlink="http://www.w3.org/1999/xlink" version="1.1" viewBox="0 0 128 128">
  <!-- Generator: Adobe Illustrator 29.8.9, SVG Export Plug-In . SVG Version: 2.1.1 Build 1)  -->
  <defs>
    <style>
      .st0 {
        opacity: .2;
      }

      .st0, .st1, .st2, .st3, .st4, .st5, .st6 {
        isolation: isolate;
      }

      .st1 {
        fill: #2e5d3b;
      }

      .st1, .st2, .st3 {
        opacity: .5;
      }

      .st7 {
        fill: #3e7c4f;
      }

      .st2 {
        fill: #356a43;
      }

      .st8 {
        fill: url(#linear-gradient);
      }

      .st9, .st6 {
        fill: #fff;
      }

      .st3 {
        stroke: #1b3a26;
        stroke-width: 2px;
      }

      .st3, .st4 {
        fill: none;
      }

      .st4 {
        opacity: .7;
        stroke: #8ca895;
        stroke-linecap: round;
        stroke-width: 3px;
      }

      .st5 {
        fill: #f2f2f2;
        font-family: Arial-BoldMT, Arial;
        font-size: 11.7px;
        font-weight: 700;
        letter-spacing: .2em;
      }

      .st5, .st6 {
        opacity: .9;
      }
    </style>
    <linearGradient id="linear-gradient" x1="-612.4" y1="446.3" x2="-612.4" y2="445.3" gradientTransform="translate(73546 53565) scale(120 -120)" gradientUnits="userSpaceOnUse">
      <stop offset="0" stop-color="#4b775a"/>
      <stop offset="1" stop-color="#234b31"/>
    </linearGradient>
  </defs>
  <g id="tile">
    <rect class="st8" x="4" y="4" width="120" height="120" rx="28" ry="28"/>
    <rect class="st3" x="4" y="4" width="120" height="120" rx="28" ry="28"/>
    <path id="rim-light" class="st4" d="M20,10h88c6.7.6,12.3,5.4,14,12"/>
  </g>
  <g id="glyph">
    <path class="st0" d="M67.3,92.9C31.2,65.9,26.7,35.4,47,24.9c12.4-7,20.3,4.7,20.3,10.6,0-5.9,7.9-17.6,20.3-10.6,20.3,10.6,15.8,41-20.3,68Z"/>
    <path class="st9" d="M65.6,87.6C29.5,60.6,25,30.1,45.3,19.6c12.4-7,20.3,4.7,20.3,10.6,0-5.9,7.9-17.6,20.3-10.6,20.3,10.6,15.8,41-20.3,68Z"/>
    <ellipse class="st6" cx="47.5" cy="31.3" rx="7.4" ry="10.5" transform="translate(-8.2 19.7) rotate(-21.6)"/>
    <g id="paw">
      <ellipse class="st1" cx="66.3" cy="53" rx="9.9" ry="8.3"/>
      <ellipse class="st7" cx="65.6" cy="51.7" rx="9.9" ry="8.3"/>
      <ellipse class="st2" cx="65.6" cy="53.8" rx="6" ry="4.1"/>
      <ellipse class="st7" cx="54.7" cy="42.4" rx="4" ry="4.1"/>
      <ellipse class="st7" cx="61.6" cy="37.3" rx="4" ry="4.1"/>
      <ellipse class="st7" cx="69.6" cy="37.3" rx="4" ry="4.1"/>
      <ellipse class="st7" cx="76.5" cy="42.4" rx="4" ry="4.1"/>
    </g>
    <text class="st5" transform="translate(22.1 106.3) scale(1 1)"><tspan x="0" y="0">PET HEALTH</tspan></text>
  </g>
</svg>