<?xml version="1.0" encoding="UTF-8"?>
<svg id="Layer_1" xmlns="http://www.w3.org/2000/svg" xmlns:xlink="http://www.w3.org/1999/xlink" version="1.1" viewBox="0 0 128 128">
  <!-- Generator: Adobe Illustrator 29.8.9, SVG Export Plug-In . SVG Version: 2.1.1 Build 1)  -->
  <defs>
    <style>
      .st0 {
        stroke: #fff;
        stroke-width: 4px;
      }

      .st0, .st1, .st2 {
        fill: none;
      }

      .st0, .st2 {
        stroke-linecap: round;
      }

      .st3 {
        font-family: Arial-Black, 'Arial Black';
        font-size: 16.1px;
        font-weight: 800;
        letter-spacing: .2em;
        opacity: .9;
      }

      .st3, .st4, .st5, .st6, .st1, .st2 {
        isolation: isolate;
      }

      .st3, .st7 {
        fill: #fff;
      }

      .st8 {
        fill: #c77b32;
      }

      .st4 {
        opacity: .2;
      }

      .st5 {
        fill: #955c25;
      }

      .st5, .st6, .st1 {
        opacity: .5;
      }

      .st9 {
        fill: url(#linear-gradient);
      }

      .st10 {
        fill: #e5e5e5;
      }

      .st11 {
        fill: #20293a;
      }

      .st12 {
        opacity: .9;
      }

      .st6 {
        fill: #ab692b;
      }

      .st1 {
        stroke: #633c19;
        stroke-width: 2px;
      }

      .st2 {
        opacity: .7;
        stroke: #cda989;
        stroke-width: 3px;
      }
    </style>
    <linearGradient id="linear-gradient" x1="-612.4" y1="446.3" x2="-612.4" y2="445.3" gradientTransform="translate(73546 53565) scale(120 -120)" gradientUnits="userSpaceOnUse">
      <stop offset="0" stop-color="#b17947"/>
      <stop offset="1" stop-color="#804e20"/>
    </linearGradient>
  </defs>
  <g id="tile">
    <rect class="st9" x="4" y="4" width="120" height="120" rx="28" ry="28"/>
    <rect class="st1" x="4" y="4" width="120" height="120" rx="28" ry="28"/>
    <path id="rim-light" class="st2" d="M20,10h88c6.7.6,12.3,5.4,14,12"/>
  </g>
  <g id="glyph">
    <g id="petbell">
      <path class="st4" d="M65.5,28.5c-16,0-20,16-20,30v14h40v-14c0-14-4-30-20-30Z"/>
      <path class="st7" d="M64,24c-16,0-20,16-20,30v14h40v-14c0-14-4-30-20-30Z"/>
      <path class="st10" d="M64,24c-12,0-17,12-18,24,6-10,12-14,18-14-6-4-4-8,0-10Z"/>
      <g id="paw">
        <ellipse class="st5" cx="64.5" cy="54.1" rx="6.6" ry="5.3"/>
        <ellipse class="st8" cx="64" cy="53.3" rx="6.6" ry="5.3"/>
        <ellipse class="st6" cx="64" cy="54.6" rx="4" ry="2.6"/>
        <circle class="st8" cx="56.7" cy="47.4" r="2.6"/>
        <circle class="st8" cx="61.4" cy="44.1" r="2.6"/>
        <circle class="st8" cx="66.6" cy="44.1" r="2.6"/>
        <circle class="st8" cx="71.3" cy="47.4" r="2.6"/>
      </g>
      <path class="st11" d="M41.5,68h45c2.5,0,4.5,2,4.5,4.5h0c0,2.5-2,4.5-4.5,4.5h-45c-2.5,0-4.5-2-4.5-4.5h0c0-2.5,2-4.5,4.5-4.5Z"/>
      <circle class="st11" cx="64" cy="87" r="6.5"/>
      <g class="st12">
        <path class="st0" d="M32,34c-4.7,4.7-6.3,10-5,16"/>
        <path class="st0" d="M96,34c4.7,4.7,6.3,10,5,16"/>
      </g>
      <g class="st12">
        <path class="st0" d="M24.3,25.3c-5.8,9.3-7.9,20-6.2,32"/>
        <path class="st0" d="M103.8,25.3c5.8,9.3,7.9,20,6.2,32"/>
      </g>
    </g>
    <text class="st3" transform="translate(16.5 108.6) scale(.8 1)"><tspan x="0" y="0">PET ALARM</tspan></text>
  </g>
</svg>