<svg xmlns="http://www.w3.org/2000/svg" viewBox="0 0 128 128">
<defs>
  <linearGradient id="bg-puppy" x1="0" y1="0" x2="0" y2="1">
    <stop offset="0" stop-color="#BB7F4B"/><stop offset="1" stop-color="#895323"/>
  </linearGradient>
</defs>
<g id="tile">
  <rect x="4" y="4" width="120" height="120" rx="28" fill="url(#bg-puppy)"/>
  <rect x="4" y="4" width="120" height="120" rx="28" fill="none" stroke="#69401B" stroke-width="2" opacity="0.5"/>
  <path id="rim-light" d="M20 10 H108 A16 16 0 0 1 122 22" fill="none" stroke="#D3AD8C" stroke-width="3" stroke-linecap="round" opacity="0.7"/>
</g>
<g id="glyph">
<g id="pup"><ellipse cx="38" cy="50" rx="12" ry="19" fill="#D8D8D8" transform="rotate(-22 38 50)"/><ellipse cx="90" cy="50" rx="12" ry="19" fill="#D8D8D8" transform="rotate(22 90 50)"/><ellipse cx="40" cy="51" rx="7" ry="13" fill="#C79A78" transform="rotate(-22 40 51)"/><ellipse cx="88" cy="51" rx="7" ry="13" fill="#C79A78" transform="rotate(22 88 51)"/><circle cx="65" cy="68" r="31" fill="#000" opacity="0.2" transform="translate(1,2)"/><circle cx="64" cy="66" r="31" fill="#FFFFFF"/><ellipse cx="64" cy="78" rx="16" ry="13" fill="#EDEDED"/><ellipse cx="50" cy="46" rx="9" ry="7" fill="#E0E0E0" opacity="0.6"/><circle cx="52" cy="58" r="5" fill="#20293A"/><circle cx="76" cy="58" r="5" fill="#20293A"/><circle cx="53.7" cy="56.3" r="1.8" fill="#FFFFFF"/><circle cx="77.7" cy="56.3" r="1.8" fill="#FFFFFF"/><ellipse cx="64" cy="72" rx="7.5" ry="5.5" fill="#20293A"/><ellipse cx="61.5" cy="70.5" rx="2.2" ry="1.5" fill="#5B6377"/><path d="M64 77 q0 7 -8 8 M64 77 q0 7 8 8" stroke="#20293A" stroke-width="3" fill="none" stroke-linecap="round"/><path d="M60 85 q4 8 10 5 v-6 Z" fill="#D98A8A"/></g>
</g>
</svg>