<svg xmlns="http://www.w3.org/2000/svg" viewBox="0 0 128 128">
<defs>
  <linearGradient id="bg-rainsafe" x1="0" y1="0" x2="0" y2="1">
    <stop offset="0" stop-color="#3E5978"/><stop offset="1" stop-color="#18304D"/>
  </linearGradient>
</defs>
<g id="tile">
  <rect x="4" y="4" width="120" height="120" rx="28" fill="url(#bg-rainsafe)"/>
  <rect x="4" y="4" width="120" height="120" rx="28" fill="none" stroke="#12253B" stroke-width="2" opacity="0.5"/>
  <path id="rim-light" d="M20 10 H108 A16 16 0 0 1 122 22" fill="none" stroke="#8394A9" stroke-width="3" stroke-linecap="round" opacity="0.7"/>
</g>
<g id="glyph">
<g id="umbrella"><path d="M23 60 C23 33 105 33 105 60 L97 55 L88 61 L79 55 L64 61 L49 55 L40 61 L31 55 Z" fill="#000" opacity="0.22" transform="translate(1.5,2.5)"/><path d="M22 58 C22 31 104 31 104 58 L96 53 L87 59 L78 53 L63 59 L48 53 L39 59 L30 53 Z" fill="#F2C94C"/><path d="M22 58 C22 38 45 32 63 32 C50 36 40 45 39 59 L30 53 Z" fill="#F6DB8A" opacity="0.85"/><path d="M104 58 C104 40 85 33 63 32 C80 36 87 46 87 59 L96 53 Z" fill="#C1A03C" opacity="0.6"/><line x1="63" y1="34" x2="63" y2="96" stroke="#E5E5E5" stroke-width="6"/><path d="M63 96 C63 108 47 108 47 98" stroke="#E5E5E5" stroke-width="6" fill="none" stroke-linecap="round"/><circle cx="63" cy="26" r="4" fill="#F2C94C"/></g><g stroke="#7FB3D5" stroke-width="4.5" stroke-linecap="round" opacity="0.9"><line x1="30" y1="72" x2="24" y2="86"/><line x1="100" y1="72" x2="94" y2="86"/><line x1="112" y1="52" x2="108" y2="62"/></g>
</g>
</svg>