<svg xmlns="http://www.w3.org/2000/svg" viewBox="0 0 128 128">
<defs>
  <linearGradient id="bg-safedrive" x1="0" y1="0" x2="0" y2="1">
    <stop offset="0" stop-color="#636A77"/><stop offset="1" stop-color="#393F4C"/>
  </linearGradient>
</defs>
<g id="tile">
  <rect x="4" y="4" width="120" height="120" rx="28" fill="url(#bg-safedrive)"/>
  <rect x="4" y="4" width="120" height="120" rx="28" fill="none" stroke="#2C313A" stroke-width="2" opacity="0.5"/>
  <path id="rim-light" d="M20 10 H108 A16 16 0 0 1 122 22" fill="none" stroke="#9B9FA8" stroke-width="3" stroke-linecap="round" opacity="0.7"/>
</g>
<g id="glyph">
<g id="wheel"><circle cx="65" cy="66" r="39" fill="#000" opacity="0.22"/><circle cx="64" cy="64" r="39" fill="none" stroke="#FFFFFF" stroke-width="10"/><circle cx="64" cy="64" r="39" fill="none" stroke="#D1D1D1" stroke-width="3" stroke-dasharray="8 10" opacity="0.7"/><circle cx="64" cy="64" r="11" fill="#FFFFFF"/><circle cx="64" cy="64" r="5" fill="#3B414E"/><g stroke="#FFFFFF" stroke-width="9"><line x1="64" y1="75" x2="64" y2="99"/><line x1="54" y1="59" x2="29" y2="52"/><line x1="74" y1="59" x2="99" y2="52"/></g><path d="M36 40 A38 38 0 0 1 58 27" fill="none" stroke="#FFFFFF" stroke-width="4" stroke-linecap="round" opacity="0.55"/></g>
</g>
</svg>