<svg xmlns="http://www.w3.org/2000/svg" viewBox="0 0 128 128">
<defs>
  <linearGradient id="bg-securelibrary" x1="0" y1="0" x2="0" y2="1">
    <stop offset="0" stop-color="#40688C"/><stop offset="1" stop-color="#1A3E5F"/>
  </linearGradient>
</defs>
<g id="tile">
  <rect x="4" y="4" width="120" height="120" rx="28" fill="url(#bg-securelibrary)"/>
  <rect x="4" y="4" width="120" height="120" rx="28" fill="none" stroke="#143049" stroke-width="2" opacity="0.5"/>
  <path id="rim-light" d="M20 10 H108 A16 16 0 0 1 122 22" fill="none" stroke="#859EB5" stroke-width="3" stroke-linecap="round" opacity="0.7"/>
</g>
<g id="glyph">
<g id="book"><path d="M-35 -23 C-19 -31 -4 -29 0 -22 C4 -29 19 -31 35 -23 V21 C19 13 4 15 0 21 C-4 15 -19 13 -35 21 Z" transform="translate(65,58)" fill="#000" opacity="0.25"/><path d="M-35 -24 C-19 -32 -4 -30 0 -23 C4 -30 19 -32 35 -24 V20 C19 12 4 14 0 20 C-4 14 -19 12 -35 20 Z" transform="translate(64,56)" fill="#FFFFFF"/><path d="M0 -23 C4 -30 19 -32 35 -24 V20 C19 12 4 14 0 20 Z" transform="translate(64,56)" fill="#E8E8E8"/><g stroke="#5B6377" stroke-width="2.5" opacity="0.8" transform="translate(64,56)"><line x1="-28" y1="-14" x2="-8" y2="-16"/><line x1="-28" y1="-6" x2="-8" y2="-8"/><line x1="-28" y1="2" x2="-8" y2="0"/><line x1="8" y1="-16" x2="28" y2="-14"/><line x1="8" y1="-8" x2="28" y2="-6"/></g><line x1="64" y1="33" x2="64" y2="76" stroke="#5B6377" stroke-width="3"/></g><g id="padlock" transform="translate(64,95) scale(0.5)"><path d="M-17 -8 V-21 C-17 -34 17 -34 17 -21 V-8" fill="none" stroke="#B2B2B2" stroke-width="9"/><path d="M-17 -8 V-21 C-17 -34 17 -34 17 -21 V-8" fill="none" stroke="#FFFFFF" stroke-width="6"/><rect x="-25.5" y="-6.5" width="52" height="42" rx="9" fill="#000" opacity="0.25" transform="translate(1.5,2.5)"/><rect x="-27" y="-8" width="54" height="42" rx="9" fill="#F2C94C"/><rect x="-27" y="-8" width="54" height="12" rx="6" fill="#F6DB8A" opacity="0.7"/><circle cx="0" cy="10" r="6.5" fill="#20293A"/><path d="M-3.5 10 h7 l2 14 h-11 Z" fill="#20293A"/></g>
</g>
</svg>