<?xml version="1.0" encoding="UTF-8"?>
<svg id="Layer_1" xmlns="http://www.w3.org/2000/svg" xmlns:xlink="http://www.w3.org/1999/xlink" version="1.1" viewBox="0 0 128 128">
  <!-- Generator: Adobe Illustrator 29.8.9, SVG Export Plug-In . SVG Version: 2.1.1 Build 1)  -->
  <defs>
    <style>
      .st0 {
        stroke: #131822;
        stroke-width: 2px;
      }

      .st0, .st1, .st2, .st3, .st4 {
        isolation: isolate;
      }

      .st0, .st5, .st2, .st3, .st6 {
        fill: none;
      }

      .st0, .st2 {
        opacity: .5;
      }

      .st1 {
        opacity: .2;
      }

      .st5 {
        stroke: #20293a;
      }

      .st5, .st2, .st3, .st6 {
        stroke-linecap: round;
      }

      .st5, .st3 {
        stroke-width: 3px;
      }

      .st7 {
        fill: url(#linear-gradient);
      }

      .st8, .st4 {
        fill: #fff;
      }

      .st9 {
        fill: #20293a;
      }

      .st10 {
        fill: #b3352c;
      }

      .st2 {
        stroke: #7d251e;
        stroke-width: 9px;
      }

      .st2, .st6 {
        stroke-linejoin: round;
      }

      .st11 {
        fill: #d8d4c8;
      }

      .st3 {
        opacity: .7;
        stroke: #848992;
      }

      .st4 {
        opacity: .9;
      }

      .st6 {
        stroke: #b3352c;
        stroke-width: 6.5px;
      }
    </style>
    <linearGradient id="linear-gradient" x1="-612.4" y1="446.3" x2="-612.4" y2="445.3" gradientTransform="translate(73546 53565) scale(120 -120)" gradientUnits="userSpaceOnUse">
      <stop offset="0" stop-color="#3f4655"/>
      <stop offset="1" stop-color="#181f2d"/>
    </linearGradient>
  </defs>
  <g id="tile">
    <rect class="st7" x="4" y="4" width="120" height="120" rx="28" ry="28"/>
    <rect class="st0" x="4" y="4" width="120" height="120" rx="28" ry="28"/>
    <path id="rim-light" class="st3" d="M20,10h88c6.7.6,12.3,5.4,14,12"/>
  </g>
  <g id="glyph">
    <g id="football">
      <circle class="st1" cx="49.8" cy="45.5" r="21"/>
      <circle class="st8" cx="48.8" cy="43" r="21"/>
      <path class="st11" d="M27.8,43c0,11.6,9.4,21,21,21s21-9.4,21-21c-10.5,5.3-28.4,5.7-40,.9-.7-.3-1.3-.6-2-.9Z"/>
      <circle class="st4" cx="41.4" cy="34.6" r="8"/>
      <polygon class="st9" points="48.8 32 58.8 40 54.8 52 42.8 52 38.8 40 48.8 32"/>
      <g>
        <path class="st5" d="M48.8,34.1v-10.1"/>
        <path class="st5" d="M58.1,40.3l9.2-3.6"/>
        <path class="st5" d="M51.5,47.5l8,11"/>
        <path class="st5" d="M45.8,46.8l-8.7,10.4"/>
        <path class="st5" d="M41.8,40l-11.4-2.9"/>
      </g>
    </g>
    <polyline class="st2" points="22.4 84.5 44.4 84.5 54.4 64.5 66.4 96.5 76.4 76.5 84.4 84.5 112.4 84.5"/>
    <polyline class="st6" points="22.4 82.1 44.4 82.1 54.4 62.1 66.4 94.1 76.4 74.1 84.4 82.1 112.4 82.1"/>
    <circle class="st10" cx="113.8" cy="85" r="4.5"/>
  </g>
</svg>