<?xml version="1.0" encoding="UTF-8"?>
<svg id="Layer_1" xmlns="http://www.w3.org/2000/svg" xmlns:xlink="http://www.w3.org/1999/xlink" version="1.1" viewBox="0 0 128 128">
  <!-- Generator: Adobe Illustrator 29.8.9, SVG Export Plug-In . SVG Version: 2.1.1 Build 1)  -->
  <defs>
    <style>
      .st0 {
        fill: #f2c94c;
      }

      .st1 {
        opacity: .2;
      }

      .st1, .st2, .st3, .st4 {
        isolation: isolate;
      }

      .st5 {
        fill: #147d74;
      }

      .st6 {
        fill: url(#linear-gradient);
      }

      .st7 {
        fill: #f8e4a5;
      }

      .st2 {
        opacity: .7;
        stroke: #a4a9b4;
        stroke-linecap: round;
        stroke-width: 3px;
      }

      .st2, .st3 {
        fill: none;
      }

      .st3 {
        opacity: .5;
        stroke: #363b47;
        stroke-width: 2px;
      }

      .st4 {
        fill: #f4f3ee;
        font-family: ArialMT, Arial;
        font-size: 8.9px;
        letter-spacing: .1em;
        opacity: .9;
      }

      .st8 {
        fill: #fff;
      }

      .st9 {
        fill: #10645c;
      }

      .st10 {
        fill: #7fb3d5;
      }
    </style>
    <linearGradient id="linear-gradient" x1="-612.4" y1="446.3" x2="-612.4" y2="445.3" gradientTransform="translate(73546 53565) scale(120 -120)" gradientUnits="userSpaceOnUse">
      <stop offset="0" stop-color="#71788a"/>
      <stop offset="1" stop-color="#464d5c"/>
    </linearGradient>
  </defs>
  <g id="tile">
    <rect class="st6" x="4" y="4" width="120" height="120" rx="28" ry="28"/>
    <rect class="st3" x="4" y="4" width="120" height="120" rx="28" ry="28"/>
    <path id="rim-light" class="st2" d="M20,10h88c6.7.6,12.3,5.4,14,12"/>
  </g>
  <rect class="st1" x="26.2" y="25.5" width="78" height="62" rx="7" ry="7"/>
  <rect class="st8" x="23.8" y="22" width="80" height="62" rx="7" ry="7"/>
  <rect class="st10" x="29.8" y="28" width="68" height="50" rx="3" ry="3"/>
  <circle class="st0" cx="46.8" cy="42" r="7.5"/>
  <circle class="st7" cx="44.8" cy="40" r="2.8"/>
  <polygon class="st5" points="29.8 78 53.8 50 67.8 64 79.8 52 97.8 78 29.8 78"/>
  <polygon class="st9" points="29.8 78 53.8 50 61.8 58 43.8 78 29.8 78"/>
  <text class="st4" transform="translate(22.8 102) scale(1.1 1)"><tspan x="0" y="0">STOCK PHOTO</tspan></text>
</svg>