<?xml version="1.0" encoding="UTF-8"?>
<svg id="Layer_1" xmlns="http://www.w3.org/2000/svg" xmlns:xlink="http://www.w3.org/1999/xlink" version="1.1" viewBox="0 0 128 128">
  <!-- Generator: Adobe Illustrator 29.8.9, SVG Export Plug-In . SVG Version: 2.1.1 Build 1)  -->
  <defs>
    <style>
      .st0 {
        fill: #f2c94c;
      }

      .st1 {
        opacity: .2;
      }

      .st1, .st2, .st3 {
        isolation: isolate;
      }

      .st4 {
        fill: #147d74;
        stroke: #fff;
        stroke-width: 4px;
      }

      .st4, .st5, .st6 {
        stroke-linejoin: round;
      }

      .st7 {
        fill: #d6d5d1;
      }

      .st8 {
        fill: url(#linear-gradient);
      }

      .st9 {
        fill: #e5e5e5;
      }

      .st10 {
        fill: #5b6377;
      }

      .st11 {
        fill: #f4f3ee;
      }

      .st2 {
        opacity: .7;
        stroke: #a4a9b4;
        stroke-width: 3px;
      }

      .st2, .st3, .st5, .st6 {
        fill: none;
      }

      .st2, .st5, .st6 {
        stroke-linecap: round;
      }

      .st3 {
        opacity: .5;
        stroke: #363b47;
        stroke-width: 2px;
      }

      .st5 {
        stroke: #9d8231;
        stroke-width: 8.2px;
      }

      .st6 {
        stroke: #f2c94c;
        stroke-width: 6px;
      }

      .st12 {
        opacity: .9;
      }

      .st13 {
        fill: #d1d1d1;
      }
    </style>
    <linearGradient id="linear-gradient" x1="-612.4" y1="446.3" x2="-612.4" y2="445.3" gradientTransform="translate(73546 53565) scale(120 -120)" gradientUnits="userSpaceOnUse">
      <stop offset="0" stop-color="#71788a"/>
      <stop offset="1" stop-color="#464d5c"/>
    </linearGradient>
  </defs>
  <g id="tile">
    <rect class="st8" x="4" y="4" width="120" height="120" rx="28" ry="28"/>
    <rect class="st3" x="4" y="4" width="120" height="120" rx="28" ry="28"/>
    <path id="rim-light" class="st2" d="M20,10h88c6.7.6,12.3,5.4,14,12"/>
  </g>
  <g id="glyph">
    <g id="skyline">
      <rect class="st9" x="23.8" y="36" width="20" height="52"/>
      <rect class="st11" x="49.8" y="18" width="22" height="70"/>
      <rect class="st13" x="77.8" y="44" width="20" height="44"/>
      <rect class="st7" x="49.8" y="18" width="22" height="6"/>
      <g>
        <rect class="st10" x="28.8" y="42" width="4.5" height="6"/>
        <rect class="st10" x="35.8" y="42" width="4.5" height="6"/>
        <rect class="st10" x="28.8" y="54" width="4.5" height="6"/>
        <rect class="st10" x="35.8" y="54" width="4.5" height="6"/>
        <rect class="st10" x="54.8" y="28" width="5" height="6"/>
        <rect class="st10" x="62.8" y="28" width="5" height="6"/>
        <rect class="st10" x="54.8" y="40" width="5" height="6"/>
        <rect class="st10" x="62.8" y="40" width="5" height="6"/>
        <rect class="st10" x="54.8" y="52" width="5" height="6"/>
        <rect class="st10" x="82.8" y="50" width="4.5" height="6"/>
        <rect class="st10" x="89.8" y="50" width="4.5" height="6"/>
        <rect class="st10" x="82.8" y="62" width="4.5" height="6"/>
      </g>
      <g class="st12">
        <rect class="st0" x="62.8" y="52" width="5" height="6"/>
        <rect class="st0" x="89.8" y="62" width="4.5" height="6"/>
      </g>
    </g>
    <g id="badge">
      <path class="st1" d="M90,59.7l26,10.9v18.5c0,15.2-11,24-26,29.4-15-5.4-26-14.2-26-29.4v-18.5l26-10.9Z"/>
      <path class="st4" d="M88.5,57.5l26,10.9v18.5c0,15.2-11,24-26,29.4-15-5.4-26-14.2-26-29.4v-18.5l26-10.9Z"/>
      <g id="check">
        <path class="st5" d="M76.5,88.8l9,9.8,16.5-21.2"/>
        <path class="st6" d="M76.5,88l9,9.8,16.5-21.2"/>
      </g>
    </g>
  </g>
</svg>