<svg xmlns="http://www.w3.org/2000/svg" viewBox="0 0 128 128">
<defs>
  <linearGradient id="bg-watertesting" x1="0" y1="0" x2="0" y2="1">
    <stop offset="0" stop-color="#2F756F"/><stop offset="1" stop-color="#0A4A44"/>
  </linearGradient>
</defs>
<g id="tile">
  <rect x="4" y="4" width="120" height="120" rx="28" fill="url(#bg-watertesting)"/>
  <rect x="4" y="4" width="120" height="120" rx="28" fill="none" stroke="#083934" stroke-width="2" opacity="0.5"/>
  <path id="rim-light" d="M20 10 H108 A16 16 0 0 1 122 22" fill="none" stroke="#7AA7A3" stroke-width="3" stroke-linecap="round" opacity="0.7"/>
</g>
<g id="glyph">
<g id="flask"><path d="M55 26 H74 V50 L92 88 C97 99 88 108 79 108 H49 C41 108 32 99 37 88 L55 50 Z" fill="#000" opacity="0.22" transform="translate(1.5,2.5)"/><path d="M54 24 H74 V48 L92 86 C97 97 88 106 79 106 H49 C41 106 31 97 36 86 L54 48 Z" fill="#FFFFFF"/><path d="M45 80 h38 l7 10 c3 8 -4 14 -10 14 H49 c-6 0 -13 -6 -10 -14 Z" fill="#7FB3D5"/><path d="M45 80 h38 l3 4 c-14 5 -30 5 -44 0 Z" fill="#ABCDE3" opacity="0.8"/><g fill="#FFFFFF" opacity="0.85"><circle cx="56" cy="92" r="3"/><circle cx="70" cy="97" r="4"/><circle cx="63" cy="86" r="2.2"/></g><rect x="49" y="18" width="30" height="9" rx="4.5" fill="#FFFFFF"/><line x1="64" y1="48" x2="64" y2="60" stroke="#D8D8D8" stroke-width="3"/></g>
</g>
</svg>