<svg xmlns="http://www.w3.org/2000/svg" viewBox="0 0 128 128">
<defs>
  <linearGradient id="bg-waterfilter" x1="0" y1="0" x2="0" y2="1">
    <stop offset="0" stop-color="#40688C"/><stop offset="1" stop-color="#1A3E5F"/>
  </linearGradient>
</defs>
<g id="tile">
  <rect x="4" y="4" width="120" height="120" rx="28" fill="url(#bg-waterfilter)"/>
  <rect x="4" y="4" width="120" height="120" rx="28" fill="none" stroke="#143049" stroke-width="2" opacity="0.5"/>
  <path id="rim-light" d="M20 10 H108 A16 16 0 0 1 122 22" fill="none" stroke="#859EB5" stroke-width="3" stroke-linecap="round" opacity="0.7"/>
</g>
<g id="glyph">
<g id="funnel"><polygon points="33,32 95,32 73,64 73,88 55,96 55,64" fill="#000" opacity="0.25" transform="translate(1.5,2.5)"/><polygon points="32,30 96,30 74,62 74,86 54,94 54,62" fill="#FFFFFF"/><polygon points="32,30 96,30 88,42 40,42" fill="#7FB3D5" opacity="0.75"/><polygon points="54,62 74,62 74,86 54,94" fill="#E5E5E5"/><g fill="#7FB3D5"><circle cx="52" cy="24" r="3.5"/><circle cx="64" cy="19" r="4.5"/><circle cx="77" cy="24" r="3.5"/></g></g><g id="drop" transform="translate(64,106) scale(0.4)"><path d="M0 -34 C12 -16 24 -2 24 12 C24 27 13 38 0 38 C-13 38 -24 27 -24 12 C-24 -2 -12 -16 0 -34 Z" fill="#7FB3D5"/><path d="M0 -34 C12 -16 24 -2 24 12 C24 24 17 33 8 36 C14 26 13 8 4 -8 C1 -17 0 -26 0 -34 Z" fill="#638BA6" opacity="0.6"/><ellipse cx="-9" cy="8" rx="6" ry="10" fill="#C5DCEC" opacity="0.85" transform="rotate(18 -9 8)"/></g>
</g>
</svg>